<svg width="581" height="408" viewBox="0 0 581 408" fill="none" xmlns="http://www.w3.org/2000/svg">
<path d="M474.282 398.45C532.963 398.45 580.533 391.85 580.533 383.709C580.533 375.568 532.963 368.968 474.282 368.968C415.601 368.968 368.031 375.568 368.031 383.709C368.031 391.85 415.601 398.45 474.282 398.45Z" fill="#DFDFEB"/>
<path d="M251.581 407.168C357.591 407.168 443.529 399.85 443.529 390.822C443.529 381.794 357.591 374.476 251.581 374.476C145.571 374.476 59.6328 381.794 59.6328 390.822C59.6328 399.85 145.571 407.168 251.581 407.168Z" fill="#DFDFEB"/>
<path d="M288.278 101.1C288.278 101.1 284.726 121.717 258.844 148.255C258.844 148.255 255.984 144.715 260.933 130.048C265.881 115.381 286.802 96.106 288.278 101.1Z" fill="#7E9E6E"/>
<path d="M288.277 101.1C288.277 101.1 264.987 117.759 258.843 148.255C258.843 148.255 257.652 158.713 261.236 167.775" stroke="black" stroke-miterlimit="10" stroke-linecap="round"/>
<path d="M225.678 117.754C225.678 117.754 232.212 112.803 220.971 100.438C210.293 88.691 198.988 78.159 176.892 74.299C176.892 74.299 183.561 104.228 197.959 111.362C212.357 118.496 225.678 117.754 225.678 117.754Z" fill="#7E9E6E"/>
<path d="M172.045 139.761C172.045 139.761 195.098 144.79 234.197 131.742C234.197 131.742 231.773 127.7 214.302 126.341C196.831 124.981 167.495 136.402 172.045 139.761Z" fill="#7E9E6E"/>
<path d="M172.045 139.761C172.045 139.761 199.704 125.119 234.197 131.742C234.197 131.742 237.745 132.63 241.358 137.456" stroke="black" stroke-miterlimit="10" stroke-linecap="round"/>
<path d="M191.153 160.648C191.153 160.648 215.823 176.887 254.921 163.84C254.921 163.84 247.317 150.085 229.847 148.725C212.376 147.365 186.602 157.289 191.153 160.648Z" fill="#7E9E6E"/>
<path d="M191.153 160.648C191.153 160.648 217.743 148.241 254.921 163.84C254.921 163.84 259.293 165.786 262.906 170.612" stroke="black" stroke-miterlimit="10" stroke-linecap="round"/>
<path d="M274.657 81.578C274.657 81.578 281.938 80.706 264.171 97.141C247.394 112.661 249.527 112.782 249.527 112.782C249.527 112.782 255.893 89.559 274.657 81.578Z" fill="black"/>
<path d="M237.322 120.643C237.322 120.643 242.76 122.74 252.568 113.739C262.376 104.738 266.032 84.678 274.657 81.578C274.657 81.578 253.019 88.568 237.322 120.643Z" fill="#7E9E6E"/>
<path d="M272.985 189.566C261.922 167.282 246.563 141.966 225.678 117.755C225.678 117.755 220.547 111.036 202.722 93.617C184.897 76.198 176.892 74.3 176.892 74.3" stroke="black" stroke-miterlimit="10" stroke-linecap="round"/>
<path d="M272.102 82.646C272.102 82.646 251.512 91.631 237.323 120.643C233.886 127.672 237.998 133.234 241.359 137.456" stroke="black" stroke-miterlimit="10" stroke-linecap="round"/>
<path d="M459.858 323.153C459.858 323.153 442.649 335.852 402.996 326.532C402.996 326.532 403.101 320.172 417.332 314.055C431.564 307.937 462.108 317.263 459.858 323.153Z" fill="#7E9E6E"/>
<path d="M458.628 321.995C458.628 321.995 431.47 312.918 403.174 325.844C403.174 325.844 394.008 331.019 388.776 339.24" stroke="black" stroke-miterlimit="10" stroke-linecap="round"/>
<path d="M402.48 295.215C402.48 295.215 410.324 297.598 413.736 281.24C416.978 265.7 418.87 250.365 409.024 230.21C409.024 230.21 388.708 253.177 391.384 269.021C394.06 284.866 402.48 295.215 402.48 295.215Z" fill="#7E9E6E"/>
<path d="M460.806 301.347C460.806 301.347 466.858 305.487 442.664 306.149C419.819 306.775 421.343 308.271 421.343 308.271C421.343 308.271 441.43 294.991 460.806 301.347Z" fill="black"/>
<path d="M406.983 306.147C406.983 306.147 409.693 311.307 423.002 310.995C436.311 310.683 452.276 297.999 460.807 301.347C460.807 301.347 439.921 292.353 406.983 306.147Z" fill="#7E9E6E"/>
<path d="M372.11 375.667C383.658 353.63 395.137 326.335 402.479 295.215C402.479 295.215 404.907 287.117 408.546 262.461C412.185 237.805 409.023 230.21 409.023 230.21" stroke="black" stroke-miterlimit="10" stroke-linecap="round"/>
<path d="M458.18 300.467C458.18 300.467 436.77 293.664 406.983 306.146C399.767 309.17 397.719 313.945 394.669 322.797" stroke="black" stroke-miterlimit="10" stroke-linecap="round"/>
<path d="M185.611 176.331C180.041 176.331 174.649 174.377 170.372 170.808L158.507 160.907C154.237 157.344 149.165 155.435 143.969 155.435H85.0822C79.7382 155.435 75.4062 159.767 75.4062 165.111V176.331V378.3C75.4062 387.521 82.8812 394.996 92.1022 394.996H385.653C392.825 394.996 398.639 389.182 398.639 382.009V189.318C398.639 182.146 392.825 176.332 385.653 176.332H185.611V176.331Z" fill="#AE9AE4"/>
<path d="M398.639 383.097C398.639 383.097 378.661 345.623 376.663 341.319L322.064 230.087C320.692 227.131 317.729 225.24 314.47 225.24H111.576C104.2 225.24 93.5316 221.374 87.8676 216.648L79.6806 209.816C75.4106 206.253 70.3386 204.344 65.1426 204.344H9.10156C3.13656 204.344 -0.915441 210.404 1.36356 215.916L69.1296 379.815C72.9286 389.002 81.8895 394.994 91.8306 394.994H394.974C396.95 394.994 398.775 393.301 398.774 391.325L398.639 383.097Z" fill="#D5C7ED"/>
<path d="M316.111 235.818L396.229 391.559" stroke="black" stroke-miterlimit="10" stroke-linejoin="round"/>
<path d="M283.099 262.656H214.086C212.204 262.656 210.453 261.709 209.442 260.146C207.11 256.538 209.742 251.815 214.086 251.815H283.099C284.981 251.815 286.732 252.762 287.743 254.325C290.075 257.934 287.443 262.656 283.099 262.656Z" stroke="black" stroke-miterlimit="10" stroke-linejoin="round"/>
<path d="M154.001 316.184L207.734 348.197" stroke="black" stroke-miterlimit="10" stroke-linecap="round" stroke-linejoin="round"/>
<path d="M197.934 314.641L164.17 348.39" stroke="black" stroke-miterlimit="10" stroke-linecap="round" stroke-linejoin="round"/>
<path d="M219.133 342.687C223.628 326.438 209.837 308.444 188.331 302.495C166.824 296.546 145.747 304.895 141.252 321.144C136.758 337.392 150.548 355.386 172.055 361.335C193.561 367.284 214.639 358.935 219.133 342.687Z" stroke="black" stroke-miterlimit="10" stroke-linecap="round" stroke-linejoin="round"/>
<path d="M458.376 176.436C459.665 170.866 453.738 163.922 448.127 165.017C443.559 165.908 441.285 167.003 440.552 167.245C439.117 167.718 428.409 167.021 427.183 168.805C426.295 170.097 431.881 171.589 435.454 171.944C436.19 172.017 436.407 172.979 435.778 173.368C432.267 175.545 425.277 179.97 424.683 181.063C423.886 182.528 420.255 188.225 421.278 188.857C422.301 189.49 425.395 186.644 427.405 184.624C429.416 182.604 435.291 180.886 435.291 180.886C435.291 180.886 425.076 191.139 423.729 193.982C421.724 198.215 427.542 196.359 427.542 196.359C426.631 198.751 431.403 198.227 432.531 197.324C434.759 195.541 441.646 187.231 441.666 188.077C441.686 188.924 434.551 197.979 435.274 200.094C435.997 202.209 438.883 199.555 440.552 197.324C442.222 195.093 447.125 188.857 447.125 188.857C447.125 188.857 452.695 184.791 457.345 177.768C457.382 177.712 458.361 176.502 458.376 176.436Z" fill="#DB9C7F"/>
<path d="M427.796 196.129L437.543 184.513" stroke="black" stroke-miterlimit="10" stroke-linecap="round"/>
<path d="M385.104 143.487L420.166 121.612C420.383 121.47 420.59 121.313 420.786 121.142L432.348 109.245C434.865 107.039 438.747 107.553 440.603 110.338L446.27 118.838C447.47 120.638 447.512 122.972 446.377 124.814L438.239 138.017C437.64 138.989 436.763 139.748 435.714 140.198C429.167 143.002 404.153 153.567 389.233 157.782C385.528 158.829 381.927 155.813 382.251 151.976L382.617 147.655C382.76 145.956 383.677 144.419 385.104 143.487Z" fill="#FFB4F2"/>
<path d="M465.854 362.06L464 374.656C464 374.656 429.257 388.002 432.48 388.195C435.703 388.388 485.631 385.483 485.631 385.483L482.693 362.616L465.854 362.06Z" fill="black"/>
<path d="M475.531 158.226C475.531 158.226 478.3 184.874 480.376 186.258C482.452 187.642 485.221 188.334 485.221 188.334L480.722 157.88L475.531 158.226Z" stroke="#424242" stroke-miterlimit="10"/>
<path d="M530.395 139.91C530.395 139.91 544.477 168.586 540.389 184.563L462.327 173.825L463.956 144.034L530.395 139.91Z" fill="#FEFFC5"/>
<path d="M532.54 145.719C532.54 145.719 521.506 166.152 500.392 167.786" stroke="#424242" stroke-miterlimit="10" stroke-linecap="round"/>
<path d="M514.876 163.427C514.876 163.427 519.153 176.672 531.57 176.945" stroke="#424242" stroke-miterlimit="10" stroke-linecap="round"/>
<path d="M462.327 173.825C462.327 173.825 441.413 248.282 440.871 272.252L456.152 364.595C456.152 364.595 470.729 371.843 485.912 365.986C486.534 365.746 478.215 318.092 477.63 269.026L521.274 177.707L462.327 173.825Z" fill="#FEFFC5"/>
<path d="M540.734 181.439L537.66 271.289L572.037 365.224C572.037 365.224 557.652 377.377 539.481 366.316L502.159 276.872L505.987 211.791L489.722 201.942L487.299 173.755L540.734 181.439Z" fill="#FEFFC5"/>
<path d="M480.323 165.017L496.895 177.503L520.652 150.98L462.944 159.224L477.065 177.949L480.323 165.017Z" fill="#FEFFC5"/>
<path d="M547.745 360.541L544.746 371.408C544.746 371.408 522.828 395.181 526.058 395.181C529.288 395.181 565.28 380.465 565.28 380.465L560.666 357.824L547.745 360.541Z" fill="black"/>
<path d="M527.59 152.62C527.59 152.62 537.07 175.923 530.24 273.674C530.24 273.674 554.183 326.369 566.598 368.048" stroke="#424242" stroke-miterlimit="10" stroke-linecap="round"/>
<path d="M492.75 204.272L468.854 270.831L479.102 368.048" stroke="#424242" stroke-miterlimit="10" stroke-linecap="round"/>
<path d="M388.535 156.628C388.535 156.628 388.999 158.959 383.838 160.739C378.677 162.519 375.64 161.954 375.64 161.954C375.64 161.954 364.062 148.298 363.548 147.816C363.034 147.333 363.909 142.082 367.334 139.979C369.414 138.702 377.48 140.784 383.496 142.616C387.69 143.893 390.278 148.094 389.573 152.421C389.297 154.122 388.951 155.699 388.535 156.628Z" fill="#DB9C7F"/>
<path d="M379.039 153.004C379.039 153.004 369.573 151.63 365.573 148.332C365.573 148.332 359.595 147.127 358.324 147.881C357.054 148.635 356.013 149.706 353.264 150.17C350.515 150.634 351.344 148.803 354.232 146.207C355.057 145.465 357.265 142.798 359.179 142.437C361.756 141.952 367.333 139.979 367.333 139.979L378.523 153.357" fill="#DB9C7F"/>
<path d="M375.639 161.954C375.639 161.954 371.801 164.362 370.451 164.296C369.101 164.231 367.826 163.426 367.496 161.208C367.496 161.208 360.348 162.52 362.613 157.111C362.613 157.111 358.295 156.411 358.18 153.593C358.18 153.593 354.345 151.682 355.184 148.619C356.022 145.555 368.055 145.833 368.055 145.833L380.823 152.315L375.639 161.954Z" fill="#DB9C7F"/>
<path d="M372.929 162.466C372.929 162.466 376.575 159.233 376.372 157.936C376.169 156.639 375.484 155.926 374.656 156.175C373.546 156.508 369.319 159.731 367.497 161.208" stroke="#1A1C30" stroke-width="0.7799" stroke-miterlimit="10" stroke-linecap="round" stroke-linejoin="round"/>
<path d="M362.614 157.111C362.614 157.111 372.326 155.595 372.416 154.156C372.506 152.717 371.827 150.819 369.799 151.223C367.388 151.703 360.475 153.359 358.182 153.314" stroke="#1A1C30" stroke-width="0.7799" stroke-miterlimit="10" stroke-linecap="round" stroke-linejoin="round"/>
<path d="M374.656 156.175C374.656 156.175 376.441 155.067 375.735 153.829C375.029 152.591 374.065 152.156 371.999 152.693" stroke="#1A1C30" stroke-width="0.7799" stroke-miterlimit="10" stroke-linecap="round" stroke-linejoin="round"/>
<path d="M357.986 149.258C357.986 149.258 358.517 148.567 359.268 147.861" stroke="#1A1C30" stroke-width="0.7799" stroke-miterlimit="10" stroke-linecap="round" stroke-linejoin="round"/>
<path d="M379.048 167.266L378.881 167.36C377.573 168.096 375.916 167.632 375.181 166.324L349.933 121.43L354.836 118.673L380.084 163.567C380.82 164.874 380.356 166.53 379.048 167.266Z" fill="#333969"/>
<path d="M362.413 128.645L364.532 132.413C365.107 133.435 364.847 134.672 363.951 135.175L359.373 137.75C358.477 138.254 357.286 137.833 356.711 136.812L354.5 132.881" fill="#333969"/>
<path d="M352.617 91.775C343.859 75.528 332.881 64.344 325.904 63.821L326.135 62.278L322.489 64.655C316.223 68.922 319.553 87.983 329.927 107.228C340.301 126.473 353.79 138.615 360.056 134.348L363.484 132.063L362.497 130.742C364.908 123.287 361.145 107.597 352.617 91.775Z" fill="#333969"/>
<path d="M363.215 132.262C369.897 128.78 367.117 110.228 357.007 90.8256C346.896 71.4231 333.283 58.5168 326.602 61.9986C319.92 65.4805 322.699 84.0319 332.809 103.435C342.92 122.837 356.533 135.743 363.215 132.262Z" fill="#7584F1"/>
<path d="M352.801 91.756C361.244 107.419 364.558 122.519 360.205 125.484C355.851 128.449 345.478 118.156 337.035 102.493C328.592 86.83 325.278 71.73 329.631 68.765C333.985 65.8 344.358 76.093 352.801 91.756Z" fill="#D3DDF7"/>
<path d="M379.039 153.004C379.039 153.004 369.573 151.63 365.573 148.332C365.573 148.332 359.595 147.127 358.324 147.881C357.054 148.635 356.013 149.706 353.264 150.17C350.515 150.634 351.344 148.803 354.232 146.207C355.057 145.465 357.265 142.798 359.179 142.437C361.756 141.952 367.333 139.979 367.333 139.979L378.523 153.357" fill="#DB9C7F"/>
<path d="M379.04 153.004C379.04 153.004 369.574 151.63 365.574 148.332C365.574 148.332 359.596 147.127 358.325 147.881C357.055 148.635 356.014 149.706 353.265 150.17" stroke="#1A1C30" stroke-width="0.7799" stroke-miterlimit="10" stroke-linecap="round" stroke-linejoin="round"/>
<path d="M352.801 91.756C344.358 76.093 333.985 65.8 329.631 68.765C329.287 68.999 328.997 69.317 328.747 69.697C333.78 70.003 342.583 79.56 349.927 93.184C357.703 107.61 361.123 121.55 358.214 125.98C358.967 126.026 359.637 125.869 360.203 125.484C364.558 122.519 361.243 107.418 352.801 91.756Z" fill="#333969"/>
<path d="M346.924 85.617C351.415 93.949 353.178 101.982 350.862 103.559C348.546 105.136 343.028 99.661 338.537 91.329C334.046 82.997 332.283 74.964 334.599 73.387C336.914 71.81 342.433 77.285 346.924 85.617Z" fill="white"/>
<path d="M514.859 112.434L507.894 87.582C505.337 78.459 500.856 70.017 494.934 62.621C484.445 49.519 456.893 50.711 456.893 50.711L435.695 65.964C435.63 65.999 435.565 66.035 435.5 66.071C423.019 72.958 420.726 83.582 421.054 99.957L421.827 122.068L436.177 108.364L439.799 113.33C439.783 113.187 439.769 113.054 439.757 112.925L441.472 115.625L439.799 113.33C440.307 117.892 442.686 129.511 453.746 134.939L460.047 144.854L458.376 158.557C517.511 180.061 532.238 137.836 532.238 137.836L514.859 112.434Z" fill="#FFB4F2"/>
<path d="M433.144 106.084L440.887 115.553C440.887 115.553 439.829 130.147 454.534 134.826" stroke="black" stroke-miterlimit="10" stroke-linecap="round"/>
<path d="M491.909 125.357L446.901 164.572C446.901 164.572 455.813 177.049 459.824 177.495L513.744 143.182" fill="#FFB4F2"/>
<path d="M460.271 152.54C460.271 152.54 484.78 124.911 493.247 120.901" stroke="black" stroke-miterlimit="10" stroke-linecap="round"/>
<path d="M480.268 95.556C480.268 95.556 481.438 101.739 489.292 123.463" stroke="black" stroke-miterlimit="10" stroke-linecap="round"/>
<path d="M466.063 173.93C466.063 173.93 516.418 141.845 516.864 132.487C517.31 123.129 504.164 79.681 504.164 79.681" stroke="black" stroke-miterlimit="10" stroke-linecap="round"/>
<path d="M471.577 128.476C471.577 128.476 483.697 129.617 487.452 118.617" stroke="black" stroke-miterlimit="10" stroke-linecap="round"/>
<path d="M422.496 120.285C422.496 120.285 425.838 116.943 429.18 120.731" stroke="black" stroke-miterlimit="10" stroke-linecap="round"/>
<path d="M382.844 142.346L389.974 139.004C389.974 139.004 398.664 148.473 395.544 156.606L386.854 159.168C386.854 159.168 390.865 150.256 382.844 142.346Z" fill="#FEFFC5"/>
<path d="M449.743 159.558C449.743 159.558 459.101 163.569 465.785 175.099L458.599 180.614C458.599 180.614 449.742 167.914 443.559 165.908L449.743 159.558Z" fill="#FEFFC5"/>
<path d="M441.888 49.267L471.41 51.439C471.41 51.439 472.529 67.678 454.701 81.999L446.695 74.22L442.333 83.691C442.333 83.691 435.558 79.88 434.645 68.941L436.084 55.66L441.888 49.267Z" fill="#FEFFC5"/>
<path d="M456.893 50.71C457.97 51.628 458.481 53.042 458.231 54.435C457.283 59.72 454.417 72.512 448.671 74.119C441.404 76.152 436.872 61.801 436.872 61.801L440.495 36.734L456.893 50.71Z" fill="#DB9C7F"/>
<path d="M433.872 56.654L433.783 60.304C433.715 60.341 432.474 71.116 436.095 71.531C451.229 68.795 452.181 54.446 453.476 40.206C453.476 40.206 432.403 53.811 433.872 56.654Z" fill="black"/>
<path d="M408.677 29.777C408.677 29.777 404.989 64.925 426.824 70.973C448.66 77.022 453.891 41.412 453.138 29.097C452.385 16.782 446.896 12.202 431.592 11.65C408.95 10.834 408.677 29.777 408.677 29.777Z" fill="#DB9C7F"/>
<path d="M428.294 46.76C428.356 48.025 427.755 49.084 426.951 49.125C426.147 49.166 425.445 48.173 425.383 46.908C425.321 45.643 425.922 44.584 426.726 44.543C427.53 44.503 428.232 45.495 428.294 46.76Z" fill="black"/>
<path d="M430.692 40.285C430.692 40.285 423.478 43.425 422.77 37.971" stroke="black" stroke-miterlimit="10" stroke-linecap="round"/>
<path d="M414.016 40.299C414.016 40.299 411.633 44.436 408.893 42.598" stroke="black" stroke-miterlimit="10" stroke-linecap="round"/>
<path d="M410.183 47.647C410.183 47.647 411.546 47.207 413.546 48.263" stroke="black" stroke-miterlimit="10" stroke-linecap="round"/>
<path d="M431.562 60.758C431.562 60.758 433.53 58.877 435.154 58.449" stroke="black" stroke-miterlimit="10" stroke-linecap="round"/>
<path d="M416.804 51.697C416.804 51.697 415.55 54.547 418.742 55.915" stroke="black" stroke-miterlimit="10" stroke-linecap="round"/>
<path d="M408.421 37.334C408.421 37.334 408.791 27.042 413.351 21.227C413.351 21.227 419.621 35.478 446.64 38.385L454.506 36.732C454.506 36.732 457.727 20.23 446.44 13.732C435.154 7.234 417.881 10.825 412.324 16.668C402.904 26.572 408.421 37.334 408.421 37.334Z" fill="black"/>
<path d="M441.396 36.504L446.069 45.738L449.376 35.364L441.396 36.504Z" fill="black"/>
<path d="M457.733 44.779C456.387 49.691 452.522 52.938 449.102 52.032C445.682 51.126 444 46.409 445.347 41.497C446.693 36.585 450.558 33.338 453.978 34.244C457.398 35.15 459.079 39.867 457.733 44.779Z" fill="#DB9C7F"/>
<path d="M454.3 40.502C454.3 40.502 450.453 37.192 448.351 43.244C448.351 43.244 450.598 45.629 449.18 47.501C449.18 47.501 451.395 48.004 452.488 46.05" stroke="black" stroke-miterlimit="10" stroke-linecap="round" stroke-linejoin="round"/>
<path d="M452.635 42.817C452.635 42.817 452.421 41.472 450.927 39.938" stroke="black" stroke-miterlimit="10" stroke-linecap="round" stroke-linejoin="round"/>
<path d="M454.506 51.866C454.506 53.708 453.013 55.201 451.171 55.201C449.329 55.201 447.836 53.708 447.836 51.866C447.836 50.024 449.329 48.531 451.171 48.531C453.013 48.531 454.506 50.024 454.506 51.866Z" fill="white"/>
<path d="M445.158 18.035C445.158 18.035 449.262 -3.398 458.839 0.706003C468.415 4.81 472.748 25.331 463.627 26.927C454.507 28.523 447.438 24.191 447.438 24.191L445.158 18.035Z" fill="black"/>
<path d="M445.271 24.191C445.271 24.191 461.118 37.416 466.248 25.217" stroke="black" stroke-miterlimit="10" stroke-linecap="round"/>
<path d="M505.159 211.285L486.815 200.933" stroke="#424242" stroke-miterlimit="10" stroke-linecap="round"/>
<path d="M88.7856 75.333C108.607 75.873 125.007 91.749 126.148 111.545C126.819 123.185 122.308 133.777 114.716 141.25C113.594 142.354 113.073 143.928 113.335 145.48L116.186 162.351L98.6436 152.13C97.6446 151.548 96.4676 151.334 95.3336 151.563C91.0456 152.428 86.5026 152.587 81.8196 151.878C64.4906 149.253 50.9706 134.907 49.3726 117.453C47.2426 94.19 65.8236 74.707 88.7856 75.333Z" fill="#D3DDF7"/>
<path d="M85.9532 127.149L85.8452 117.944C87.1882 117.617 88.4132 117.191 89.5212 116.664C90.6282 116.138 91.6002 115.53 92.4352 114.839C93.2702 114.15 93.9692 113.378 94.5332 112.524C95.0962 111.671 95.5212 110.754 95.8132 109.774C96.1032 108.794 96.2492 107.759 96.2492 106.669C96.2492 105.108 95.8672 103.637 95.1042 102.257C94.3422 100.878 93.2522 99.761 91.8362 98.907C90.4202 98.054 88.7322 97.627 86.7712 97.627C84.6652 97.627 82.7132 98.209 80.9162 99.37C79.1182 100.533 77.7472 102.511 76.8042 105.307L75.8242 104.653C76.6592 102.003 78.0572 99.969 80.0182 98.553C81.9792 97.136 84.2112 96.428 86.7172 96.428C88.8602 96.428 90.7382 96.883 92.3552 97.79C93.9702 98.698 95.2322 99.924 96.1402 101.467C97.0472 103.01 97.5022 104.744 97.5022 106.669C97.5022 108.122 97.2572 109.483 96.7672 110.754C96.2772 112.025 95.5862 113.187 94.6972 114.24C93.8072 115.294 92.7272 116.21 91.4562 116.991C90.1852 117.773 88.7512 118.362 87.1532 118.761L87.0452 127.149H85.9532ZM85.3002 134.012C85.3002 133.54 85.4272 133.15 85.6812 132.841C85.9352 132.533 86.2812 132.378 86.7162 132.378C87.2242 132.378 87.5872 132.524 87.8062 132.814C88.0242 133.105 88.1322 133.504 88.1322 134.012C88.1322 134.448 88.0142 134.829 87.7782 135.156C87.5412 135.483 87.1872 135.646 86.7152 135.646C86.2422 135.646 85.8892 135.5 85.6522 135.21C85.4172 134.92 85.3002 134.521 85.3002 134.012Z" fill="black"/>
</svg>
